<?xml version="1.0" standalone="no"?>
<!DOCTYPE svg PUBLIC "-//W3C//DTD SVG 20010904//EN"
 "http://www.w3.org/TR/2001/REC-SVG-20010904/DTD/svg10.dtd">
<svg version="1.0" xmlns="http://www.w3.org/2000/svg"
 width="120.000000pt" height="120.000000pt" viewBox="0 0 120.000000 120.000000"
 preserveAspectRatio="xMidYMid meet">

<g transform="translate(0.000000,120.000000) scale(0.100000,-0.100000)"
fill="#0d6efd" stroke="none">
<path d="M528 1057 c-121 -35 -194 -147 -168 -258 7 -27 28 -69 47 -94 29 -39
55 -56 166 -110 73 -35 144 -76 159 -92 113 -120 12 -277 -156 -241 -51 11
-118 64 -136 108 -7 16 -17 30 -23 30 -16 0 -91 -23 -101 -31 -14 -12 46 -109
96 -154 117 -105 306 -106 410 -3 55 56 73 102 73 188 0 134 -59 202 -263 301
-93 46 -128 68 -143 92 -48 77 21 157 135 157 56 0 85 -11 128 -48 l33 -30 47
38 47 37 -32 31 c-74 71 -219 107 -319 79z"/>
</g>
</svg>
